<?xml version="1.0" encoding="UTF-8"?>
<svg version="1.1" viewBox="0 0 900 900" width="1280" height="1280" xmlns="http://www.w3.org/2000/svg">
<path transform="translate(0)" d="m0 0h900v900h-900z" fill="#FFFEFE"/>
<path transform="translate(339,305)" d="m0 0h13l14 2 16 6 10 6 15 15 5-5 8-7 10-6 15-6 15-4 9-1h10l15 2 15 5 12 7 10 9 6 8 8 16 4 14 2 21v152h-66l-1-2-1-143-2-12-5-10-10-6-5-1h-16l-10 3-9 5-5 4-1 3v70l-1 89h-65l-1-5v-138l-2-15-4-8-8-6-8-2h-15l-12 4-11 8-4 5-1 126v30l-1 1h-65l-1-1-1-224 1-4 13-1h42l2 8 3 15 5-3 11-9 15-8 15-5z" fill="#2DB8F1"/>
<path transform="translate(344,621)" d="m0 0h197l5 3 4 5v6l-8 11-14 17-11 13-8 10-12 14-8 10-11 13-9 11-11 13-7 8-6 6-5 1-7-4v-2h-2l-11-14-9-10-11-14-12-14-9-11-11-13-8-10-10-12-9-11-9-12v-6l3-5z" fill="#2DB8F1"/>
<path transform="translate(599,309)" d="m0 0h64l1 1v73l-1 156h-65l-1-1-1-225 1-3z" fill="#2DB8F1"/>
<path transform="translate(621,206)" d="m0 0h18l12 3 10 6 7 9 4 10v15l-4 10-9 10-14 7-5 1h-20l-13-4-8-6-6-7-4-9-1-5v-10l3-11 6-8 8-6 11-4z" fill="#2DB8F1"/>
</svg>
